# Rhino

mtllib round.mtl
o object_1
usemtl diffuse_Black
v -335.8053860967251 -155.9813490855737 0
v -346.05282132284958 -31.669868502563318 0
v -316.59870927304354 101.85543945655763 0
v -256.70868143843785 201.99942042589831 0
v -157.5465042040907 268.76207440545875 0
v 77.10458845936445 274.65289681541998 0
v 265.61090557812344 186.29056066600171 0
v 287.21058774798121 82.2193647566869 0
v 290.1559989529618 -49.342335732446926 0
v 283.28337280800702 -141.63188682183934 0
v 232.22957858834309 -241.77586779118002 0
v 142.88543870393136 -292.82966201084383 0
v -16.970775072474339 -317.96281105386743 0
v -146.56886809162108 -301.27214755897728 0
v -265.36712002583891 -262.98180189422931 0
v -318.27229190584461 -212.35500853331843 0
v -180.08263142718846 -178.30317083404131 0
v 30.568723583080043 16.244897647589141 0
v -191.17776431924986 -51.316826760959643 0
v 157.0302232306951 -18.180503965767571 0
v 155.55784764775618 34.430403794488825 0
v 35.845578078019201 -191.18909194102892 0
v -114.49308737055907 -243.55652013138138 0
v 163.03192728600737 -19.143979435423631 0
v 117.58894644922231 147.45085829910846 0
v -192.4363024901682 205.20471695266909 0
v -75.496563195068177 -114.51826048658592 0
v -254.74716304828743 -187.73025815930583 0
v -87.708444673653673 30.636556489857696 0
v -144.35477753220428 -169.26068975460299 0
v -37.657669111233673 -133.30708492538793 0
v -27.986142728822216 248.48107417274039 0
v 237.61572776282316 -95.778324249433965 0
v 237.25703627553497 100.57298338930572 0
v 201.70445206100067 -239.30314117179768 0
v -164.08540099645145 -215.23485456455609 0
v -35.413385487275974 242.39184993973228 0
v 253.92515142373739 -82.605271677614681 0
v 40.067306501431574 255.3744919099297 0
v -317.44032358298404 66.289183375922278 0
v 224.39345869838081 182.39503399644752 0
v -155.37621866200521 257.34769813376744 0
v -127.57479128417052 -30.352836094382269 0
v -126.798641719966 167.44830318516847 0
v 214.40084335227959 8.5834973644159618 0
v -145.39291203281539 15.048348991507339 0
v -117.13152335763429 97.79697587037316 0
v 258.27445557393361 -190.31427494000036 0
v 132.06053710385311 -146.26671115437006 0
v -175.89332545942 10.019461554085609 0
v -139.07331889450961 -291.55451707556688 0
v -215.86796259777518 -203.61492450942936 0
v -12.530603128562774 63.185223828296003 0
v 251.77087092500477 -49.496648186098554 0
v -225.84303977728592 111.11911871966373 0
v -42.535646523367632 -253.09090634933028 0
v -327.36944643473828 -142.67192684456083 0
v -18.825913494784658 -293.31809855664153 0
v 77.810750167534337 123.86650191454258 0
v 19.524811297754638 -71.944267093449085 0
v 46.098343635857759 -271.55034874407966 0
v -17.864147149565298 200.86155251119544 0
v -192.5770356191822 -68.52127558977682 0
v -106.10210755987806 -210.33807548929201 0
v 88.222467525186175 81.792780712344296 0
v -99.653689079310553 -254.09653884837971 0
v -45.196744159744526 28.250676312329432 0
v -114.38469552254685 219.32099628573567 0
v -249.5867633541456 82.823919475305701 0
v -45.446614817699526 -189.00551312772367 0
v -172.45181273876949 -218.54685623470547 0
vn 0 0 1
vn 0 0 1
vn 0 0 1
vn 0 0 1
vn 0 0 1
vn 0 0 1
vn 0 0 1
vn 0 0 1
vn 0 0 1
vn 0 0 1
vn 0 0 1
vn 0 0 1
vn 0 0 1
vn 0 0 1
vn 0 0 1
vn 0 0 1
vn 0 0 1
vn 0 0 1
vn 0 0 1
vn 0 0 1
vn 0 0 1
vn 0 0 1
vn 0 0 1
vn 0 0 1
vn 0 0 1
vn 0 0 1
vn 0 0 1
vn 0 0 1
vn 0 0 1
vn 0 0 1
vn 0 0 1
vn 0 0 1
vn 0 0 1
vn 0 0 1
vn 0 0 1
vn 0 0 1
vn 0 0 1
vn 0 0 1
vn 0 0 1
vn 0 0 1
vn 0 0 1
vn 0 0 1
vn 0 0 1
vn 0 0 1
vn 0 0 1
vn 0 0 1
vn 0 0 1
vn 0 0 1
vn 0 0 1
vn 0 0 1
vn 0 0 1
vn 0 0 1
vn 0 0 1
vn 0 0 1
vn 0 0 1
vn 0 0 1
vn 0 0 1
vn 0 0 1
vn 0 0 1
vn 0 0 1
vn 0 0 1
vn 0 0 1
vn 0 0 1
vn 0 0 1
vn 0 0 1
vn 0 0 1
vn 0 0 1
vn 0 0 1
vn 0 0 1
vn 0 0 1
vn 0 0 1
f 2//2 1//1 57//57
f 2//2 40//40 3//3
f 1//1 16//16 28//28
f 1//1 28//28 57//57
f 40//40 69//69 3//3
f 16//16 15//15 28//28
f 3//3 69//69 55//55
f 3//3 55//55 4//4
f 15//15 52//52 28//28
f 2//2 57//57 63//63
f 2//2 63//63 19//19
f 57//57 28//28 63//63
f 2//2 69//69 40//40
f 2//2 19//19 69//69
f 28//28 52//52 17//17
f 69//69 19//19 50//50
f 4//4 55//55 26//26
f 52//52 71//71 17//17
f 4//4 26//26 5//5
f 28//28 17//17 63//63
f 15//15 71//71 52//52
f 26//26 42//42 5//5
f 17//17 71//71 36//36
f 69//69 50//50 55//55
f 15//15 14//14 71//71
f 17//17 36//36 30//30
f 71//71 14//14 51//51
f 19//19 43//43 50//50
f 50//50 43//43 46//46
f 55//55 44//44 26//26
f 63//63 17//17 30//30
f 26//26 68//68 42//42
f 71//71 51//51 36//36
f 36//36 51//51 23//23
f 55//55 50//50 47//47
f 63//63 43//43 19//19
f 50//50 46//46 47//47
f 26//26 44//44 68//68
f 55//55 47//47 44//44
f 36//36 64//64 30//30
f 36//36 23//23 64//64
f 51//51 66//66 23//23
f 46//46 29//29 47//47
f 63//63 30//30 27//27
f 46//46 43//43 29//29
f 63//63 27//27 43//43
f 23//23 66//66 64//64
f 5//5 42//42 68//68
f 30//30 64//64 27//27
f 64//64 70//70 27//27
f 64//64 66//66 56//56
f 27//27 70//70 31//31
f 64//64 56//56 70//70
f 5//5 68//68 37//37
f 66//66 58//58 56//56
f 68//68 62//62 37//37
f 51//51 13//13 66//66
f 66//66 13//13 58//58
f 44//44 62//62 68//68
f 14//14 13//13 51//51
f 43//43 67//67 29//29
f 29//29 67//67 53//53
f 47//47 29//29 53//53
f 5//5 37//37 32//32
f 37//37 62//62 32//32
f 44//44 47//47 62//62
f 43//43 27//27 67//67
f 27//27 31//31 60//60
f 27//27 60//60 67//67
f 47//47 53//53 62//62
f 67//67 18//18 53//53
f 70//70 22//22 31//31
f 70//70 56//56 22//22
f 67//67 60//60 18//18
f 32//32 62//62 39//39
f 56//56 58//58 61//61
f 56//56 61//61 22//22
f 58//58 13//13 61//61
f 62//62 53//53 59//59
f 31//31 22//22 60//60
f 53//53 65//65 59//59
f 53//53 18//18 65//65
f 62//62 59//59 39//39
f 39//39 59//59 25//25
f 60//60 22//22 49//49
f 32//32 39//39 6//6
f 59//59 65//65 25//25
f 39//39 25//25 6//6
f 18//18 21//21 65//65
f 60//60 20//20 18//18
f 18//18 20//20 21//21
f 60//60 49//49 20//20
f 13//13 12//12 61//61
f 22//22 61//61 12//12
f 22//22 12//12 49//49
f 21//21 20//20 24//24
f 49//49 12//12 35//35
f 65//65 21//21 25//25
f 21//21 24//24 45//45
f 49//49 24//24 20//20
f 25//25 21//21 34//34
f 6//6 25//25 41//41
f 49//49 33//33 24//24
f 25//25 34//34 41//41
f 24//24 33//33 54//54
f 24//24 54//54 45//45
f 5//5 32//32 6//6
f 21//21 45//45 34//34
f 33//33 38//38 54//54
f 35//35 11//11 48//48
f 49//49 35//35 48//48
f 49//49 48//48 33//33
f 12//12 11//11 35//35
f 33//33 48//48 10//10
f 41//41 34//34 7//7
f 54//54 38//38 9//9
f 33//33 10//10 38//38
f 45//45 8//8 34//34
f 45//45 54//54 9//9
f 34//34 8//8 7//7
f 45//45 9//9 8//8
f 38//38 10//10 9//9
f 6//6 41//41 7//7
